HIERARCHY
ROOT Hips
{
 OFFSET 0.000000 0.000000 0.000000
 CHANNELS 6 Xposition Yposition Zposition Yrotation Xrotation Zrotation
 JOINT Chest
 {
  OFFSET 0.000000 9.585900 0.002600
  CHANNELS 3 Yrotation Xrotation Zrotation
  JOINT Chest2
  {
   OFFSET 0.000000 9.601200 -0.005300
   CHANNELS 3 Yrotation Xrotation Zrotation
   JOINT Chest3
   {
    OFFSET 0.000000 9.561800 0.000000
    CHANNELS 3 Yrotation Xrotation Zrotation
    JOINT Chest4
    {
     OFFSET 0.000000 9.552100 0.000000
     CHANNELS 3 Yrotation Xrotation Zrotation
     JOINT Neck
     {
      OFFSET 0.000000 14.453000 0.000000
      CHANNELS 3 Yrotation Xrotation Zrotation
      JOINT Head
      {
       OFFSET 0.000000 8.936500 -0.011300
       CHANNELS 3 Yrotation Xrotation Zrotation
       End Site
       {
        OFFSET 0.000000 17.073600 -0.006000
       }
      }
     }
     JOINT RightCollar
     {
      OFFSET -2.921100 9.558500 0.000000
      CHANNELS 3 Yrotation Xrotation Zrotation
      JOINT RightShoulder
      {
       OFFSET -13.519700 0.000000 0.000000
       CHANNELS 3 Yrotation Xrotation Zrotation
       JOINT RightElbow
       {
        OFFSET 0.000000 -29.696600 0.000000
        CHANNELS 3 Yrotation Xrotation Zrotation
        JOINT RightWrist
        {
         OFFSET 0.000000 -24.004700 0.000000
         CHANNELS 3 Yrotation Xrotation Zrotation
         End Site
         {
          OFFSET 0.000000 -17.728500 0.000000
         }
        }
       }
      }
     }
     JOINT LeftCollar
     {
      OFFSET 2.921100 9.558500 0.000000
      CHANNELS 3 Yrotation Xrotation Zrotation
      JOINT LeftShoulder
      {
       OFFSET 13.519700 0.000000 0.000000
       CHANNELS 3 Yrotation Xrotation Zrotation
       JOINT LeftElbow
       {
        OFFSET 0.000000 -29.696600 0.000000
        CHANNELS 3 Yrotation Xrotation Zrotation
        JOINT LeftWrist
        {
         OFFSET 0.000000 -24.004700 0.000000
         CHANNELS 3 Yrotation Xrotation Zrotation
         End Site
         {
          OFFSET 0.000000 -17.728500 0.000000
         }
        }
       }
      }
     }
    }
   }
  }
 }
 JOINT RightHip
 {
  OFFSET -7.771700 -0.012900 -0.001300
  CHANNELS 3 Yrotation Xrotation Zrotation
  JOINT RightKnee
  {
   OFFSET 0.000000 -40.869800 0.001200
   CHANNELS 3 Yrotation Xrotation Zrotation
   JOINT RightAnkle
   {
    OFFSET 0.000000 -39.717900 0.002100
    CHANNELS 3 Yrotation Xrotation Zrotation
    JOINT RightToe
    {
     OFFSET 0.000000 -4.965400 11.033500
     CHANNELS 3 Yrotation Xrotation Zrotation
     End Site
     {
      OFFSET 0.000000 -1.423100 5.872300
     }
    }
   }
  }
 }
 JOINT LeftHip
 {
  OFFSET 7.771700 -0.012900 -0.001300
  CHANNELS 3 Yrotation Xrotation Zrotation
  JOINT LeftKnee
  {
   OFFSET 0.000000 -40.869800 0.001200
   CHANNELS 3 Yrotation Xrotation Zrotation
   JOINT LeftAnkle
   {
    OFFSET 0.000000 -39.717900 0.002100
    CHANNELS 3 Yrotation Xrotation Zrotation
    JOINT LeftToe
    {
     OFFSET 0.000000 -4.965400 11.033500
     CHANNELS 3 Yrotation Xrotation Zrotation
     End Site
     {
      OFFSET 0.000000 -1.423100 5.872300
     }
    }
   }
  }
 }
}
MOTION
Frames: 16
Frame Time: 0.008333
5.221214 50.091581 44.035379 173.116060 -34.302860 -7.125868 6.122135 19.594946 6.634553 0.677676 2.599490 0.625272 1.176081 4.289596 0.978785 5.154277 16.815925 4.661268 -0.597447 18.738603 2.757296 -1.969710 -0.924882 5.243422 -1.851272 -4.799639 -6.178381 10.499263 -6.083052 -1.690322 23.252956 -76.403083 -36.101997 1.083185 -10.414519 6.428478 -11.608030 0.070715 0.916776 3.677480 -5.404121 -3.383604 -92.706522 -70.173402 111.659253 14.493681 -7.917644 -23.076186 1.293567 -46.783849 9.140638 -84.897089 84.166523 -73.294942 -0.620732 -9.434501 -2.971506 -0.230002 1.035689 -0.125355 -10.063612 -50.643846 17.741095 -143.065333 82.927723 -150.751703 0.419542 -14.225992 7.329148 -0.378970 -0.848639 -0.148723
5.218803 50.093680 44.035593 173.107403 -34.286304 -7.136009 6.111580 19.565615 6.661632 0.666390 2.598366 0.629190 1.181932 4.273192 0.979600 5.132148 16.804131 4.685986 -0.564233 18.797239 2.701348 -1.822576 -0.763257 5.144561 -1.775282 -4.792185 -6.252833 10.481318 -5.930612 -2.253229 22.654490 -76.494810 -34.865124 1.113916 -10.457568 6.703955 -11.642027 0.112037 0.968535 3.726352 -5.341771 -3.546424 -92.474927 -69.851348 111.608220 14.341645 -8.012596 -23.509357 1.268884 -46.801139 9.167192 -84.902494 84.174962 -73.307876 -0.605469 -9.442266 -2.978415 -0.227328 1.037350 -0.119014 -10.080837 -50.660777 17.766364 -143.090827 82.924837 -150.778777 0.422273 -14.231444 7.324177 -0.378946 -0.851119 -0.151571
5.214442 50.096120 44.034201 173.090777 -34.272776 -7.128099 6.058509 19.548157 6.683833 0.689844 2.599937 0.610362 1.182736 4.257960 0.982642 5.108402 16.795868 4.707553 -0.521156 18.851048 2.641638 -1.653435 -0.570945 5.045930 -1.643040 -4.855335 -6.385969 10.442228 -5.721603 -2.774013 22.219015 -76.536463 -33.790856 1.159945 -10.507328 7.044291 -11.667504 0.126437 1.030865 3.760332 -5.240246 -3.718717 -92.208293 -69.485564 111.557999 14.142217 -8.114028 -24.002103 1.261016 -46.818371 9.159523 -84.946029 84.196770 -73.354831 -0.572501 -9.434879 -2.981210 -0.246428 1.022962 -0.125983 -10.088381 -50.676736 17.780537 -143.024127 82.911979 -150.723316 0.427861 -14.223916 7.323830 -0.369955 -0.863726 -0.150230
5.211804 50.099690 44.031952 173.082450 -34.261763 -7.133051 6.029158 19.541037 6.704219 0.685458 2.595434 0.612724 1.135006 4.235404 1.017776 5.116491 16.803379 4.690101 -0.403511 18.983734 2.619525 -1.527716 -0.436845 4.936219 -1.525453 -4.929016 -6.543421 10.461194 -5.515810 -3.284310 21.984526 -76.531957 -32.934002 1.227312 -10.564919 7.423982 -11.679295 0.137157 1.110388 3.780936 -5.131044 -3.901090 -91.919114 -69.084622 111.501121 13.908961 -8.220234 -24.566218 1.252486 -46.829235 9.166614 -84.987735 84.198147 -73.390509 -0.562603 -9.438042 -2.990508 -0.242995 1.019922 -0.123335 -10.101983 -50.687021 17.799591 -142.971869 82.902429 -150.678701 0.440901 -14.222198 7.328319 -0.375162 -0.870798 -0.153242
5.209163 50.103495 44.030130 173.072584 -34.244580 -7.135228 6.017843 19.526048 6.716423 0.662763 2.593998 0.627107 1.150447 4.232086 1.005359 5.073071 16.790534 4.722116 -0.306778 19.101336 2.587268 -1.369453 -0.271594 4.830004 -1.443496 -4.989896 -6.694594 10.560595 -5.329939 -3.813891 21.971121 -76.492275 -32.323312 1.319341 -10.632272 7.807086 -11.685397 0.153168 1.197384 3.807763 -5.026152 -4.075255 -91.649436 -68.664577 111.451223 13.659875 -8.320600 -25.195396 1.246897 -46.845778 9.170722 -85.041211 84.193822 -73.439588 -0.543875 -9.443046 -2.996610 -0.243668 1.018910 -0.122680 -10.124927 -50.701085 17.828028 -142.920869 82.894282 -150.641332 0.438948 -14.216948 7.335436 -0.368800 -0.878198 -0.156068
5.206528 50.107243 44.029418 173.054771 -34.218969 -7.130993 6.010986 19.502786 6.726229 0.660443 2.592528 0.627147 1.145981 4.228934 1.007841 5.032629 16.779505 4.748387 -0.222398 19.205699 2.548144 -1.199015 -0.082757 4.729401 -1.383675 -5.062414 -6.842696 10.714336 -5.131642 -4.347482 22.171809 -76.429870 -31.949748 1.427326 -10.714931 8.174326 -11.700612 0.175607 1.279922 3.861541 -4.922867 -4.213489 -91.427502 -68.242033 111.414959 13.420618 -8.419490 -25.861517 1.225573 -46.864374 9.169349 -85.044402 84.187994 -73.438627 -0.497364 -9.445374 -3.009937 -0.260776 1.016443 -0.130698 -10.145035 -50.724948 17.852894 -142.883624 82.888889 -150.614555 0.440644 -14.206677 7.339434 -0.357896 -0.889517 -0.160198
5.203584 50.111321 44.029051 173.027871 -34.191753 -7.116844 5.990775 19.482440 6.733691 0.676205 2.588675 0.616887 1.088816 4.217881 1.039175 5.038816 16.776782 4.731981 -0.139386 19.313447 2.511002 -1.031897 0.112702 4.633094 -1.344043 -5.151674 -6.980695 10.894664 -4.905346 -4.876226 22.583183 -76.355033 -31.795479 1.532774 -10.813969 8.530072 -11.726034 0.212663 1.365130 3.956363 -4.825186 -4.305932 -91.247506 -67.835732 111.366684 13.219925 -8.546766 -26.520001 1.227668 -46.891658 9.175413 -85.023297 84.189116 -73.419709 -0.524892 -9.450926 -2.995493 -0.259491 1.015323 -0.142173 -10.143076 -50.750261 17.861090 -142.914414 82.891068 -150.645246 0.432135 -14.204414 7.331881 -0.354323 -0.892202 -0.157657
5.203728 50.116984 44.027930 173.016331 -34.174165 -7.125629 5.927664 19.471984 6.750538 0.669463 2.581147 0.618528 1.109110 4.213423 1.027153 5.029988 16.770114 4.730788 -0.057608 19.424441 2.475210 -0.867629 0.314526 4.539933 -1.321312 -5.252182 -7.110514 11.073843 -4.653375 -5.389451 23.190321 -76.277728 -31.839170 1.632352 -10.924636 8.892613 -11.751946 0.265557 1.470824 4.097902 -4.734438 -4.364164 -91.115089 -67.466061 111.293515 13.070344 -8.720378 -27.119204 1.210681 -46.906616 9.191985 -85.033466 84.184373 -73.426683 -0.484305 -9.442314 -3.011608 -0.266024 1.006481 -0.136597 -10.155513 -50.762668 17.882926 -142.948019 82.894629 -150.676426 0.436276 -14.208482 7.330705 -0.359879 -0.890309 -0.159741
5.204118 50.122226 44.027535 172.988669 -34.155464 -7.123299 5.909586 19.456192 6.757636 0.688829 2.577421 0.613876 1.082311 4.206511 1.033249 5.043940 16.769773 4.725104 -0.007795 19.502481 2.457388 -0.700551 0.547743 4.442880 -1.335625 -5.375300 -7.222851 11.238682 -4.376486 -5.874873 23.992569 -76.207625 -32.086797 1.735816 -11.045756 9.275398 -11.790884 0.309310 1.617265 4.269615 -4.639152 -4.395365 -91.047909 -67.147725 111.211164 12.969300 -8.930286 -27.633052 1.207744 -46.923953 9.207249 -85.028254 84.174661 -73.402993 -0.494785 -9.441525 -3.040982 -0.220820 1.004717 -0.125145 -10.137323 -50.781194 17.885928 -143.058564 82.902264 -150.772505 0.445992 -14.214298 7.327493 -0.371209 -0.890118 -0.163480
5.204188 50.125971 44.028626 172.951771 -34.128671 -7.110269 5.916112 19.429354 6.759852 0.687715 2.574400 0.613951 1.056795 4.203904 1.038999 5.057121 16.765244 4.718785 0.022435 19.537595 2.439031 -0.525086 0.843685 4.337773 -1.349408 -5.519525 -7.340329 11.389028 -4.055223 -6.317204 25.039892 -76.150450 -32.598493 1.841848 -11.178983 9.680412 -11.806589 0.336063 1.769661 4.440062 -4.528123 -4.395822 -91.034133 -66.885124 111.129138 12.903668 -9.157868 -28.074367 1.211011 -46.951889 9.217661 -84.994427 84.174620 -73.365139 -0.488133 -9.441476 -3.051089 -0.237176 1.003455 -0.122242 -10.121631 -50.807488 17.901099 -143.147910 82.909056 -150.858681 0.435543 -14.213705 7.324911 -0.366631 -0.891981 -0.161643
5.203908 50.129116 44.029153 172.918565 -34.106520 -7.091364 5.917331 19.409282 6.754148 0.663454 2.573342 0.618647 1.078662 4.202392 1.033134 5.017586 16.752175 4.727416 0.129118 19.745035 2.395126 -0.398509 0.997552 4.259105 -1.332106 -5.692273 -7.483632 11.529580 -3.667199 -6.695109 26.393068 -76.102207 -33.448412 1.941803 -11.328588 10.105411 -11.778208 0.340251 1.894605 4.591192 -4.398722 -4.361162 -91.044368 -66.672184 111.045520 12.859430 -9.386008 -28.462394 1.222235 -46.975320 9.215877 -84.969044 84.180692 -73.340201 -0.473908 -9.447010 -3.053424 -0.243159 1.008428 -0.126457 -10.078241 -50.834072 17.883351 -143.217891 82.915807 -150.911166 0.435143 -14.213892 7.321667 -0.367995 -0.893110 -0.162202
5.203909 50.131032 44.029758 172.879948 -34.085331 -7.065098 5.903927 19.398983 6.743492 0.661923 2.570563 0.618310 1.069967 4.198102 1.030846 5.016742 16.745431 4.728385 0.210795 19.908505 2.351520 -0.269126 1.215111 4.180670 -1.336044 -5.905376 -7.638976 11.660487 -3.209354 -6.980704 28.123327 -76.047597 -34.707954 2.034235 -11.509821 10.529585 -11.758148 0.319906 2.015158 4.720465 -4.256979 -4.298609 -91.074266 -66.498940 110.971108 12.833440 -9.599983 -28.809822 1.210765 -46.999210 9.230317 -84.967159 84.187383 -73.359508 -0.459864 -9.447512 -3.057151 -0.253570 1.007805 -0.129454 -10.024042 -50.862783 17.856805 -143.310847 82.921229 -150.983971 0.434183 -14.211363 7.317296 -0.370858 -0.897063 -0.163588
5.208476 50.131437 44.032084 172.833417 -34.058568 -7.056642 5.904752 19.379908 6.750200 0.634886 2.568783 0.621383 1.087569 4.187374 1.025908 4.988045 16.727752 4.729796 0.286664 20.001414 2.309974 -0.129635 1.554045 4.085477 -1.324372 -6.101450 -7.825695 11.760334 -2.701539 -7.158616 30.298935 -75.975202 -36.427413 2.125002 -11.735550 10.913427 -11.706499 0.316925 2.127414 4.824048 -4.113347 -4.220689 -91.124759 -66.364220 110.914261 12.821000 -9.795806 -29.124356 1.199370 -47.031983 9.267262 -84.920608 84.190357 -73.303161 -0.485262 -9.441104 -3.094708 -0.228985 1.004475 -0.111951 -10.009883 -50.892250 17.887155 -143.371915 82.921401 -151.038154 0.436832 -14.214900 7.316585 -0.382208 -0.897167 -0.167096
5.211332 50.130909 44.032977 172.791905 -34.037606 -7.033650 5.904410 19.364171 6.742759 0.611201 2.562852 0.623096 1.120795 4.183611 1.018283 4.948086 16.708443 4.730323 0.358782 20.197758 2.266228 -0.008088 1.824272 4.002832 -1.324355 -6.270937 -8.034212 11.780136 -2.153584 -7.232032 32.913485 -75.886403 -38.573320 2.221341 -11.999848 11.208826 -11.662826 0.314259 2.248543 4.905136 -3.961546 -4.122760 -91.193586 -66.275432 110.872275 12.811070 -9.973642 -29.410107 1.202640 -47.060809 9.285502 -84.937714 84.193128 -73.326504 -0.505149 -9.445819 -3.097035 -0.212503 1.009906 -0.117880 -9.972562 -50.920023 17.884617 -143.461509 82.923055 -151.119734 0.436252 -14.214428 7.317686 -0.391510 -0.900166 -0.170958
5.213912 50.129510 44.033130 172.752350 -34.018866 -7.004251 5.855613 19.358061 6.719589 0.626303 2.560149 0.620182 1.101862 4.172650 1.017304 4.936568 16.702459 4.722865 0.424181 20.404196 2.211638 0.119552 2.111157 3.898107 -1.259755 -6.452514 -8.286487 11.687122 -1.513253 -7.205269 35.857198 -75.785748 -41.029117 2.329698 -12.275318 11.358548 -11.594408 0.286318 2.349973 4.978498 -3.783412 -3.996635 -91.290620 -66.239955 110.844178 12.797255 -10.131689 -29.676986 1.214705 -47.089313 9.292832 -84.994890 84.194644 -73.391928 -0.527556 -9.452393 -3.085223 -0.235659 1.011934 -0.129787 -9.933579 -50.946168 17.875688 -143.521481 82.920646 -151.174390 0.430881 -14.212373 7.317039 -0.383867 -0.899987 -0.171958
5.219927 50.127292 44.034334 172.710060 -33.994440 -6.990336 5.859785 19.336221 6.722995 0.602272 2.572594 0.623927 1.103012 4.156338 1.013603 4.911643 16.711295 4.721955 0.477818 20.580507 2.153966 0.238471 2.435953 3.775605 -1.118551 -6.713444 -8.552976 11.516185 -0.709247 -7.098626 38.881484 -75.681086 -43.595064 2.457003 -12.523177 11.330010 -11.521691 0.220249 2.459095 5.044158 -3.575089 -3.854308 -91.407791 -66.265570 110.816159 12.777918 -10.266716 -29.928070 1.218402 -47.123351 9.310750 -85.010314 84.204842 -73.400386 -0.524748 -9.451187 -3.096601 -0.225942 1.008580 -0.125659 -9.928747 -50.974666 17.909367 -143.499686 82.908698 -151.157139 0.440423 -14.214264 7.319236 -0.388725 -0.899162 -0.175176
